<svg width="542" height="301" viewBox="0 0 542 301" fill="none" xmlns="http://www.w3.org/2000/svg">
<path d="M217 67.0045C217 95.1658 216.885 122.829 217.078 150.49C217.128 157.717 219.348 164.549 224.493 169.923C230.049 175.724 237.29 176.776 244.75 175.601C261.016 173.04 274.264 163.242 288.79 156.54C298.709 151.963 308.238 146.544 317.959 141.535C319.347 140.82 320.833 140.296 322.739 139.486C322.739 155.569 322.739 170.977 322.739 186.693C308.089 186.693 293.351 186.693 278.306 186.693C278.306 183.758 278.306 180.683 278.306 177.204C289.572 177.204 300.986 177.204 312.698 177.204C312.698 169.731 312.698 162.637 312.698 154.982C301.425 160.846 290.218 166.74 278.951 172.516C269.248 177.49 259.71 183.181 248.707 184.603C233.809 186.528 218.353 184.903 211.176 166.825C208.61 160.361 207.272 153.006 207.181 146.033C206.768 114.377 206.955 82.7118 207.104 51.0507C207.114 49.0387 208.076 46.4105 209.529 45.1243C221.172 34.8194 233.058 24.7896 244.829 14.6282C248.601 11.3713 252.251 7.97226 256.73 3.94336C256.73 57.9283 256.73 110.648 256.73 163.685C253.774 163.685 250.7 163.685 247.286 163.685C247.286 118.098 247.286 72.3446 247.286 25.3726C242.922 28.9206 239.285 31.7593 235.782 34.7542C230.423 39.3349 225.003 43.8644 219.944 48.762C218.397 50.2596 217.388 52.8266 217.125 55.0227C216.673 58.8013 217 62.6731 217 67.0045Z" fill="white"/>
<path d="M303.245 20.2549C309.722 13.749 315.948 7.49533 323 0.413208C323 5.30453 323 9.32819 323 13.3518C323 22.3489 323.059 31.3469 322.941 40.3424C322.921 41.85 322.599 43.834 321.624 44.7764C307.043 58.8604 292.328 72.8062 277 87.3989C277 73.4352 276.932 60.3453 277.1 47.2585C277.118 45.8852 278.259 44.2562 279.331 43.2096C287.154 35.5755 295.092 28.0601 303.245 20.2549ZM306.018 46.4727C315.964 41.2672 314.501 32.281 313.675 23.3271C304.843 31.6434 296.096 39.8401 287.425 48.1169C286.689 48.8193 286.095 50.0447 286.064 51.0468C285.92 55.6248 286.001 60.2098 286.001 64.7567C286.823 64.8129 287.286 64.9827 287.437 64.8348C293.482 58.9039 299.498 52.9441 306.018 46.4727Z" fill="white"/>
<path d="M323 104.999C323 111.139 323 116.779 323 122.708C320.061 122.708 317.323 122.708 314.23 122.708C314.23 108.418 314.23 94.0132 314.23 79.6086C313.848 79.3299 313.465 79.0512 313.083 78.7724C309.884 82.1862 306.804 85.7216 303.458 88.985C298.499 93.8215 293.229 98.3427 288.369 103.272C287.062 104.597 286.132 106.904 286.102 108.778C285.904 121.052 286 133.332 286 145.803C282.875 145.803 280.141 145.803 277 145.803C277 131.52 276.951 117.412 277.084 103.306C277.096 102.063 278.032 100.563 278.98 99.6335C293.402 85.4947 307.898 71.4311 323 56.7448C323 73.0896 323 88.7945 323 104.999Z" fill="white"/>
<path d="M266 239.362C266 249.297 266 258.778 266 268.628C263.438 268.628 261.051 268.628 258.322 268.628C258.322 252.389 258.322 235.996 258.322 219.345C262.448 218.378 265.287 219.272 268.179 223.12C275.801 233.26 284.118 242.877 292.828 253.52C292.828 241.543 292.828 230.654 292.828 219.383C295.537 219.383 297.93 219.383 300.666 219.383C300.666 235.583 300.666 251.976 300.666 268.589C296.737 269.747 294.13 268.728 291.385 265.099C283.503 254.677 275.008 244.72 266 233.655C266 235.927 266 237.417 266 239.362Z" fill="white"/>
<path d="M395.93 237.105C398.38 227.322 404.796 221.866 413.79 219.8C424.797 217.272 436.153 218.829 443.649 230.119C453.695 245.253 444.412 267.314 425.995 269.175C418.118 269.971 411.375 268.66 404.803 264.449C396.497 259.128 392.922 247.285 395.93 237.105ZM436.037 233.551C430.117 225.575 421.072 223.739 411.831 228.638C405.385 232.056 401.898 239.464 403.016 247.366C403.91 253.689 410.202 260.338 416.733 261.862C423.816 263.516 432.332 260.424 436.018 254.969C440.656 248.103 440.836 241.166 436.037 233.551Z" fill="white"/>
<path d="M343.885 220.94C360.905 228.551 363.623 249.043 352.949 261.26C346.941 268.137 338.612 270.244 329.135 269.248C319.065 268.19 312.272 263.193 308.308 254.507C301.089 238.688 311.887 218.823 330.537 219.084C334.861 219.145 339.17 220.261 343.885 220.94ZM315.052 238.849C311.834 249.943 318.03 258.717 327.718 261.788C337.066 264.752 347.159 258.901 350.266 249.264C353.272 239.939 347.96 230.19 338.116 226.965C328.405 223.784 318.725 228.533 315.052 238.849Z" fill="white"/>
<path d="M14.9995 231.015C14.9995 239.807 14.9995 248.103 14.9995 256.885C22.6845 256.885 30.0785 256.885 37.7314 256.885C37.7314 261.091 37.7314 264.813 37.7314 268.769C25.2955 268.769 13.031 268.769 0.382812 268.769C0.382812 252.484 0.382812 236.106 0.382812 219.362C4.89584 219.362 9.61978 219.362 14.9995 219.362C14.9995 222.997 14.9995 226.758 14.9995 231.015Z" fill="white"/>
<path d="M229.989 240C234.121 240 237.756 240 241.876 240C241.876 232.988 241.876 226.26 241.876 219.27C244.746 219.27 247.135 219.27 249.764 219.27C249.764 235.801 249.764 252.183 249.764 268.783C247.267 268.783 244.988 268.783 242.231 268.783C242.231 261.803 242.231 254.73 242.231 247.333C233.048 247.333 224.33 247.333 215.121 247.333C215.121 254.348 215.121 261.41 215.121 268.73C212.251 268.73 209.862 268.73 207.234 268.73C207.234 252.196 207.234 235.814 207.234 219.216C209.734 219.216 212.013 219.216 214.77 219.216C214.77 225.866 214.77 232.605 214.77 240C219.985 240 224.739 240 229.989 240Z" fill="white"/>
<path d="M122 255.99C122 243.533 122 231.575 122 219.31C133.668 219.31 145.051 219.31 156.718 219.31C156.718 221.389 156.718 223.444 156.718 225.983C147.898 225.983 139.166 225.983 130.224 225.983C130.224 230.725 130.224 234.998 130.224 239.763C137.881 239.763 145.61 239.763 153.665 239.763C153.665 242.299 153.665 244.354 153.665 246.891C146.003 246.891 138.268 246.891 130.272 246.891C130.272 252.084 130.272 256.805 130.272 262.007C139.489 262.007 148.552 262.007 157.801 262.007C157.801 264.429 157.801 266.376 157.801 268.662C146.111 268.662 134.384 268.662 122 268.662C122 264.671 122 260.58 122 255.99Z" fill="white"/>
<path d="M492.748 229.75C491.069 231.797 489.936 232.465 487.779 230.417C482.331 225.244 474.169 224.441 467.331 227.918C460.107 231.593 456.002 238.911 457.013 246.313C457.986 253.434 463.965 260.472 470.924 261.797C474.286 262.437 477.995 262.404 481.336 261.69C484.924 260.923 487.872 258.98 487.103 254.116C486.567 250.721 487 247.172 487 243.347C489.276 243.347 491.333 243.347 493.993 243.347C493.993 249.506 494.256 255.795 493.809 262.033C493.697 263.609 491.596 265.752 489.931 266.391C479.03 270.576 468.278 271.785 458.247 263.799C449.589 256.905 446.809 244.808 450.805 234.413C457.377 217.32 479.869 215.11 491.881 223.505C493.797 224.845 496.875 226.726 492.748 229.75Z" fill="white"/>
<path d="M158.001 242.222C160.232 218.945 186.756 213.297 200.553 223.683C203.486 225.892 203.606 227.066 201.221 229.287C200.372 230.077 199.646 231 198.741 231.997C192.625 226.939 186.133 224.177 178.363 227.012C171.294 229.593 167.043 234.769 166.119 242.055C165.257 248.851 167.839 254.949 173.595 258.713C180.111 262.975 187.22 263.917 194.289 259.344C195.746 258.402 197.569 257.016 198.967 257.266C200.446 257.53 202.196 259.303 202.718 260.803C203.052 261.762 201.699 263.881 200.548 264.696C188.462 273.249 169.71 270.991 161.568 257.662C159.021 253.493 159.115 247.711 158.001 242.222Z" fill="white"/>
<path d="M531.857 220.402C534.578 219.584 537.148 219.142 541.194 218.446C538.012 223.968 535.679 228.144 533.22 232.244C531.219 235.581 529.216 238.934 526.951 242.092C522.088 248.87 519.713 256.224 520.973 264.607C521.163 265.874 520.999 267.194 520.999 268.742C518.228 268.742 515.841 268.742 513.242 268.742C513.151 267.954 512.919 267.295 513.031 266.7C515.317 254.497 509.556 244.945 503.086 235.488C499.647 230.461 496.813 225.021 493.53 219.471C499.123 218.377 502.713 218.733 505.302 224.297C508.491 231.15 513.135 237.326 517.305 244.046C522.226 236.094 526.965 228.436 531.857 220.402Z" fill="white"/>
<path d="M99.0002 269C95.0362 269.663 94.9416 267.574 94.96 264.936C95.0489 252.155 95.0001 239.374 95.0001 226.109C89.6427 226.109 84.5733 226.109 79.2617 226.109C79.2617 223.572 79.2617 221.518 79.2617 219.23C92.8074 219.23 106.191 219.23 119.787 219.23C119.787 221.403 119.787 223.35 119.787 225.77C114.478 225.77 109.069 225.77 103 225.77C103 232.303 103 238.389 103 244.474C103 251.46 102.878 258.45 103.06 265.432C103.133 268.231 102.31 269.462 99.0002 269Z" fill="white"/>
<path d="M364 247C364 237.536 364 228.572 364 219.305C366.685 219.305 369.071 219.305 371.945 219.305C371.945 233.401 371.945 247.459 371.945 261.992C380.805 261.992 389.207 261.992 397.795 261.992C397.795 264.418 397.795 266.366 397.795 268.658C386.786 268.658 375.723 268.658 364 268.658C364 261.676 364 254.588 364 247Z" fill="white"/>
<path d="M305 301C274.235 301 243.97 301 213.354 301C213.354 299.38 213.354 297.887 213.354 296.182C251.097 296.182 288.795 296.182 326.746 296.182C326.746 297.677 326.746 299.079 326.746 301C319.708 301 312.604 301 305 301Z" fill="white"/>
<path d="M55.991 238.237C55.9977 248.633 55.9977 258.549 55.9977 268.731C50.9224 268.731 46.2133 268.731 41.25 268.731C41.25 257.905 41.25 247.216 41.25 236.015C45.6286 236.015 49.8914 235.944 54.1465 236.093C54.7778 236.115 55.3726 237.177 55.991 238.237Z" fill="white"/>
<path d="M48.0174 219C50.7907 219 53.0816 219 55.6849 219C55.6849 223.305 55.6849 227.341 55.6849 231.691C51.0212 231.691 46.3227 231.691 41.3096 231.691C41.3096 227.685 41.3096 223.649 41.3096 219C43.3685 219 45.4517 219 48.0174 219Z" fill="white"/>
</svg>
